<svg xmlns="http://www.w3.org/2000/svg" xmlns:xlink="http://www.w3.org/1999/xlink" version="1.1" width="928" height="608" name="Mega Pyhlogeny.svg" y="0" viewBox="0 0 928 608">
<polyline points="928,608 0,608 0,0 928,0 928,608" fill="white" />
<text x="587" y="42" fill="#000000" font-size="16" font-family="Arial" > Staphylococcus phage Fi200W</text>
<polyline points="581,47 581,35 581,35" fill="none" stroke="#000000" stroke-width="1" stroke-linecap="square"/>
<text x="587" y="66" fill="#000000" font-size="16" font-family="Arial" > Staphylococcus phage P4W</text>
<polyline points="581,48 581,59 581,59" fill="none" stroke="#000000" stroke-width="1" stroke-linecap="square"/>
<text x="587" y="90" fill="#000000" font-size="16" font-family="Arial" > Staphylococcus phage 676Z</text>
<polyline points="581,60 581,83 581,83" fill="none" stroke="#000000" stroke-width="1" stroke-linecap="square"/>
<text x="587" y="114" fill="#000000" font-size="16" font-family="Arial" > Staphylococcus phage A3R</text>
<polyline points="581,72 581,107 581,107" fill="none" stroke="#000000" stroke-width="1" stroke-linecap="square"/>
<text x="587" y="138" fill="#000000" font-size="16" font-family="Arial" > Staphylococcus phage Staph1N</text>
<polyline points="581,84 581,131 581,131" fill="none" stroke="#000000" stroke-width="1" stroke-linecap="square"/>
<text x="587" y="162" fill="#000000" font-size="16" font-family="Arial" > Staphylococcus aureus bacteriophage Sb-1</text>
<polyline points="581,96 581,155 581,155" fill="none" stroke="#000000" stroke-width="1" stroke-linecap="square"/>
<text x="587" y="186" fill="#000000" font-size="16" font-family="Arial" > Staphylococcus phage JD007</text>
<polyline points="581,108 581,179 581,179" fill="none" stroke="#000000" stroke-width="1" stroke-linecap="square"/>
<text x="587" y="210" fill="#000000" font-size="16" font-family="Arial" > Staphylococcus phage Sb1M 9832</text>
<polyline points="581,120 581,203 581,203" fill="none" stroke="#000000" stroke-width="1" stroke-linecap="square"/>
<text x="587" y="234" fill="#000000" font-size="16" font-family="Arial" > Staphylococcus phage Sb1M 6168</text>
<polyline points="581,132 581,227 581,227" fill="none" stroke="#000000" stroke-width="1" stroke-linecap="square"/>
<text x="587" y="258" fill="#000000" font-size="16" font-family="Arial" > Staphylococcus phage Sb1 8383</text>
<polyline points="581,144 581,251 581,251" fill="none" stroke="#000000" stroke-width="1" stroke-linecap="square"/>
<text x="587" y="282" fill="#000000" font-size="16" font-family="Arial" > Staphylococcus phage A5W</text>
<polyline points="581,156 581,275 581,275" fill="none" stroke="#000000" stroke-width="1" stroke-linecap="square"/>
<text x="587" y="306" fill="#000000" font-size="16" font-family="Arial" > Staphylococcus phage Maine</text>
<polyline points="581,168 581,299 581,299" fill="none" stroke="#000000" stroke-width="1" stroke-linecap="square"/>
<text x="588" y="330" fill="#000000" font-size="16" font-family="Arial" > Staphylococcus phage MSA6</text>
<polyline points="581,180 581,323 582,323" fill="none" stroke="#000000" stroke-width="1" stroke-linecap="square"/>
<text x="587" y="354" fill="#000000" font-size="16" font-family="Arial" > Staphylococcus phage vB SauM-515A1</text>
<polyline points="581,192 581,347 581,347" fill="none" stroke="#000000" stroke-width="1" stroke-linecap="square"/>
<text x="587" y="378" fill="#000000" font-size="16" font-family="Arial" > Staphylococcus phage qdsa002</text>
<polyline points="581,383 581,371 581,371" fill="none" stroke="#000000" stroke-width="1" stroke-linecap="square"/>
<text x="587" y="402" fill="#000000" font-size="16" font-family="Arial" > Staphylococcus phage VB SavM JYL01</text>
<polyline points="581,384 581,395 581,395" fill="none" stroke="#000000" stroke-width="1" stroke-linecap="square"/>
<text x="587" y="426" fill="#000000" font-size="16" font-family="Arial" > Staphylococcus phage vB SauM-fRuSau02</text>
<polyline points="581,228 581,419 581,419" fill="none" stroke="#000000" stroke-width="1" stroke-linecap="square"/>
<line x1="581" y1="36" x2="581" y2="229" stroke="#000000" stroke-width="1" stroke-linecap="square"/>
<polyline points="549,335 549,227 581,227" fill="none" stroke="#000000" stroke-width="1" stroke-linecap="square"/>
<text x="609" y="450" fill="#000000" font-size="16" font-family="Arial" > Staphylococcus phage Twort</text>
<polyline points="549,336 549,443 603,443" fill="none" stroke="#000000" stroke-width="1" stroke-linecap="square"/>
<polyline points="151,401 151,335 549,335" fill="none" stroke="#000000" stroke-width="1" stroke-linecap="square"/>
<text x="339" y="474" fill="#000000" font-size="16" font-family="Arial" > Staphylococcus phage SA13</text>
<polyline points="151,402 151,467 333,467" fill="none" stroke="#000000" stroke-width="1" stroke-linecap="square"/>
<polyline points="40,446 40,401 151,401" fill="none" stroke="#000000" stroke-width="1" stroke-linecap="square"/>
<text x="296" y="498" fill="#000000" font-size="16" font-family="Arial" > Staphylococcus phage EW</text>
<polyline points="40,447 40,491 290,491" fill="none" stroke="#000000" stroke-width="1" stroke-linecap="square"/>
<text x="525" y="330" fill="#000000" font-size="13" font-family="Arial" >100</text>
<text x="564" y="222" fill="#000000" font-size="13" font-family="Arial" >96</text>
<text x="575" y="293" fill="#6D6D6D" font-size="13" font-family="Arial" >0.0</text>
<text x="575" y="437" fill="#6D6D6D" font-size="13" font-family="Arial" >0.0</text>
<text x="575" y="365" fill="#6D6D6D" font-size="13" font-family="Arial" >0.0</text>
<text x="575" y="269" fill="#6D6D6D" font-size="13" font-family="Arial" >0.0</text>
<text x="575" y="245" fill="#6D6D6D" font-size="13" font-family="Arial" >0.0</text>
<text x="575" y="221" fill="#6D6D6D" font-size="13" font-family="Arial" >0.0</text>
<text x="575" y="197" fill="#6D6D6D" font-size="13" font-family="Arial" >0.0</text>
<text x="575" y="173" fill="#6D6D6D" font-size="13" font-family="Arial" >0.0</text>
<text x="575" y="149" fill="#6D6D6D" font-size="13" font-family="Arial" >0.0</text>
<text x="575" y="125" fill="#6D6D6D" font-size="13" font-family="Arial" >0.0</text>
<text x="575" y="101" fill="#6D6D6D" font-size="13" font-family="Arial" >0.0</text>
<text x="575" y="53" fill="#6D6D6D" font-size="13" font-family="Arial" >0.0</text>
<text x="575" y="77" fill="#6D6D6D" font-size="13" font-family="Arial" >0.0</text>
<text x="575" y="389" fill="#6D6D6D" font-size="13" font-family="Arial" >0.0</text>
<text x="575" y="413" fill="#6D6D6D" font-size="13" font-family="Arial" >0.0</text>
<text x="575" y="317" fill="#000000" font-size="13" font-family="Arial" >0.0</text>
<text x="575" y="341" fill="#000000" font-size="13" font-family="Arial" >0.0</text>
<text x="570" y="461" fill="#000000" font-size="13" font-family="Arial" >0.2</text>
<text x="236" y="485" fill="#000000" font-size="13" font-family="Arial" >0.7</text>
<text x="159" y="509" fill="#000000" font-size="13" font-family="Arial" >1.0</text>
<text x="90" y="419" fill="#000000" font-size="13" font-family="Arial" >0.5</text>
<text x="344" y="353" fill="#000000" font-size="13" font-family="Arial" >1.6</text>
<text x="559" y="245" fill="#000000" font-size="13" font-family="Arial" >0.1</text>
<line x1="60" y1="524" x2="182" y2="524" stroke="#000000" stroke-width="1" stroke-linecap="square"/>
<line x1="60" y1="520" x2="60" y2="528" stroke="#000000" stroke-width="1" stroke-linecap="square"/>
<line x1="182" y1="520" x2="182" y2="528" stroke="#000000" stroke-width="1" stroke-linecap="square"/>
<text x="111" y="556" fill="#000000" font-size="13" font-family="Arial" >0.50</text>
<text x="587" y="42" fill="#000000" font-size="16" font-family="Arial" > Staphylococcus phage Fi200W</text>
<polyline points="581,47 581,35 581,35" fill="none" stroke="#000000" stroke-width="1" stroke-linecap="square"/>
<text x="587" y="66" fill="#000000" font-size="16" font-family="Arial" > Staphylococcus phage P4W</text>
<polyline points="581,48 581,59 581,59" fill="none" stroke="#000000" stroke-width="1" stroke-linecap="square"/>
<text x="587" y="90" fill="#000000" font-size="16" font-family="Arial" > Staphylococcus phage 676Z</text>
<polyline points="581,60 581,83 581,83" fill="none" stroke="#000000" stroke-width="1" stroke-linecap="square"/>
<text x="587" y="114" fill="#000000" font-size="16" font-family="Arial" > Staphylococcus phage A3R</text>
<polyline points="581,72 581,107 581,107" fill="none" stroke="#000000" stroke-width="1" stroke-linecap="square"/>
<text x="587" y="138" fill="#000000" font-size="16" font-family="Arial" > Staphylococcus phage Staph1N</text>
<polyline points="581,84 581,131 581,131" fill="none" stroke="#000000" stroke-width="1" stroke-linecap="square"/>
<text x="587" y="162" fill="#000000" font-size="16" font-family="Arial" > Staphylococcus aureus bacteriophage Sb-1</text>
<polyline points="581,96 581,155 581,155" fill="none" stroke="#000000" stroke-width="1" stroke-linecap="square"/>
<text x="587" y="186" fill="#000000" font-size="16" font-family="Arial" > Staphylococcus phage JD007</text>
<polyline points="581,108 581,179 581,179" fill="none" stroke="#000000" stroke-width="1" stroke-linecap="square"/>
<text x="587" y="210" fill="#000000" font-size="16" font-family="Arial" > Staphylococcus phage Sb1M 9832</text>
<polyline points="581,120 581,203 581,203" fill="none" stroke="#000000" stroke-width="1" stroke-linecap="square"/>
<text x="587" y="234" fill="#000000" font-size="16" font-family="Arial" > Staphylococcus phage Sb1M 6168</text>
<polyline points="581,132 581,227 581,227" fill="none" stroke="#000000" stroke-width="1" stroke-linecap="square"/>
<text x="587" y="258" fill="#000000" font-size="16" font-family="Arial" > Staphylococcus phage Sb1 8383</text>
<polyline points="581,144 581,251 581,251" fill="none" stroke="#000000" stroke-width="1" stroke-linecap="square"/>
<text x="587" y="282" fill="#000000" font-size="16" font-family="Arial" > Staphylococcus phage A5W</text>
<polyline points="581,156 581,275 581,275" fill="none" stroke="#000000" stroke-width="1" stroke-linecap="square"/>
<text x="587" y="306" fill="#000000" font-size="16" font-family="Arial" > Staphylococcus phage Maine</text>
<polyline points="581,168 581,299 581,299" fill="none" stroke="#000000" stroke-width="1" stroke-linecap="square"/>
<text x="588" y="330" fill="#000000" font-size="16" font-family="Arial" > Staphylococcus phage MSA6</text>
<polyline points="581,180 581,323 582,323" fill="none" stroke="#000000" stroke-width="1" stroke-linecap="square"/>
<text x="587" y="354" fill="#000000" font-size="16" font-family="Arial" > Staphylococcus phage vB SauM-515A1</text>
<polyline points="581,192 581,347 581,347" fill="none" stroke="#000000" stroke-width="1" stroke-linecap="square"/>
<text x="587" y="378" fill="#000000" font-size="16" font-family="Arial" > Staphylococcus phage qdsa002</text>
<polyline points="581,383 581,371 581,371" fill="none" stroke="#000000" stroke-width="1" stroke-linecap="square"/>
<text x="587" y="402" fill="#000000" font-size="16" font-family="Arial" > Staphylococcus phage VB SavM JYL01</text>
<polyline points="581,384 581,395 581,395" fill="none" stroke="#000000" stroke-width="1" stroke-linecap="square"/>
<text x="587" y="426" fill="#000000" font-size="16" font-family="Arial" > Staphylococcus phage vB SauM-fRuSau02</text>
<polyline points="581,228 581,419 581,419" fill="none" stroke="#000000" stroke-width="1" stroke-linecap="square"/>
<line x1="581" y1="36" x2="581" y2="229" stroke="#000000" stroke-width="1" stroke-linecap="square"/>
<polyline points="549,335 549,227 581,227" fill="none" stroke="#000000" stroke-width="1" stroke-linecap="square"/>
<text x="609" y="450" fill="#000000" font-size="16" font-family="Arial" > Staphylococcus phage Twort</text>
<polyline points="549,336 549,443 603,443" fill="none" stroke="#000000" stroke-width="1" stroke-linecap="square"/>
<polyline points="151,401 151,335 549,335" fill="none" stroke="#000000" stroke-width="1" stroke-linecap="square"/>
<text x="339" y="474" fill="#000000" font-size="16" font-family="Arial" > Staphylococcus phage SA13</text>
<polyline points="151,402 151,467 333,467" fill="none" stroke="#000000" stroke-width="1" stroke-linecap="square"/>
<polyline points="40,446 40,401 151,401" fill="none" stroke="#000000" stroke-width="1" stroke-linecap="square"/>
<text x="296" y="498" fill="#000000" font-size="16" font-family="Arial" > Staphylococcus phage EW</text>
<polyline points="40,447 40,491 290,491" fill="none" stroke="#000000" stroke-width="1" stroke-linecap="square"/>
<text x="525" y="330" fill="#000000" font-size="13" font-family="Arial" >100</text>
<text x="564" y="222" fill="#000000" font-size="13" font-family="Arial" >96</text>
<text x="575" y="293" fill="#6D6D6D" font-size="13" font-family="Arial" >0.0</text>
<text x="575" y="437" fill="#6D6D6D" font-size="13" font-family="Arial" >0.0</text>
<text x="575" y="365" fill="#6D6D6D" font-size="13" font-family="Arial" >0.0</text>
<text x="575" y="269" fill="#6D6D6D" font-size="13" font-family="Arial" >0.0</text>
<text x="575" y="245" fill="#6D6D6D" font-size="13" font-family="Arial" >0.0</text>
<text x="575" y="221" fill="#6D6D6D" font-size="13" font-family="Arial" >0.0</text>
<text x="575" y="197" fill="#6D6D6D" font-size="13" font-family="Arial" >0.0</text>
<text x="575" y="173" fill="#6D6D6D" font-size="13" font-family="Arial" >0.0</text>
<text x="575" y="149" fill="#6D6D6D" font-size="13" font-family="Arial" >0.0</text>
<text x="575" y="125" fill="#6D6D6D" font-size="13" font-family="Arial" >0.0</text>
<text x="575" y="101" fill="#6D6D6D" font-size="13" font-family="Arial" >0.0</text>
<text x="575" y="53" fill="#6D6D6D" font-size="13" font-family="Arial" >0.0</text>
<text x="575" y="77" fill="#6D6D6D" font-size="13" font-family="Arial" >0.0</text>
<text x="575" y="389" fill="#6D6D6D" font-size="13" font-family="Arial" >0.0</text>
<text x="575" y="413" fill="#6D6D6D" font-size="13" font-family="Arial" >0.0</text>
<text x="575" y="317" fill="#000000" font-size="13" font-family="Arial" >0.0</text>
<text x="575" y="341" fill="#000000" font-size="13" font-family="Arial" >0.0</text>
<text x="570" y="461" fill="#000000" font-size="13" font-family="Arial" >0.2</text>
<text x="236" y="485" fill="#000000" font-size="13" font-family="Arial" >0.7</text>
<text x="159" y="509" fill="#000000" font-size="13" font-family="Arial" >1.0</text>
<text x="90" y="419" fill="#000000" font-size="13" font-family="Arial" >0.5</text>
<text x="344" y="353" fill="#000000" font-size="13" font-family="Arial" >1.6</text>
<text x="559" y="245" fill="#000000" font-size="13" font-family="Arial" >0.1</text>
<line x1="60" y1="524" x2="182" y2="524" stroke="#000000" stroke-width="1" stroke-linecap="square"/>
<line x1="60" y1="520" x2="60" y2="528" stroke="#000000" stroke-width="1" stroke-linecap="square"/>
<line x1="182" y1="520" x2="182" y2="528" stroke="#000000" stroke-width="1" stroke-linecap="square"/>
<text x="111" y="556" fill="#000000" font-size="13" font-family="Arial" >0.50</text>
</svg>
